<?xml version="1.0" encoding="utf-8"?>
<!-- Generator: Adobe Illustrator 23.0.1, SVG Export Plug-In . SVG Version: 6.00 Build 0)  -->
<svg version="1.1" xmlns="http://www.w3.org/2000/svg" xmlns:xlink="http://www.w3.org/1999/xlink" x="0px" y="0px"
	 viewBox="0 0 1920 1080" style="enable-background:new 0 0 1920 1080;" xml:space="preserve">
<style type="text/css">
	.st0{clip-path:url(#SVGID_3_);}
	.st1{fill:#0F4B7C;}
	.st2{opacity:0.31;clip-path:url(#SVGID_3_);}
	.st3{fill:#FFFFFF;}
	.st4{opacity:0.19;clip-path:url(#SVGID_3_);}
	.st5{display:none;}
	.st6{display:inline;opacity:0.48;fill:#002B4A;}
	.st7{display:inline;opacity:0.38;}
	.st8{display:inline;opacity:0.51;fill:#FFFFFF;}
	.st9{display:inline;}
	.st10{display:inline;opacity:0.9;fill:#090015;}
	.st11{clip-path:url(#SVGID_4_);}
	.st12{fill:#94FDFF;}
	.st13{fill:#0072A2;}
</style>
<g id="Tausta">
	<g>
		<defs>
			<rect id="SVGID_2_" width="1920" height="1080"/>
		</defs>
		<clipPath id="SVGID_3_">
			<use xlink:href="#SVGID_2_"  style="overflow:visible;"/>
		</clipPath>
		<g class="st0">
			<rect class="st1" width="1920" height="1080"/>
		</g>
		<g class="st2">
			
				<rect x="-719.52" y="143.55" transform="matrix(0.8719 -0.4896 0.4896 0.8719 -107.3476 565.9277)" class="st3" width="3495.37" height="689.24"/>
			<path d="M2382.92-666.66L2719.4-67.43L-326.59,1643l-336.49-599.22L2382.92-666.66 M2383.68-669.38L-665.8,1043.01l338.44,602.71
				L2722.12-66.67L2383.68-669.38L2383.68-669.38z"/>
		</g>
		<g class="st4">
			
				<rect x="-220.82" y="270.8" transform="matrix(0.8712 -0.491 0.491 0.8712 -119.7604 551.1923)" width="2422.67" height="466.03"/>
			<path d="M1931.04-292.52l227.82,404.26L49.99,1300.17l-227.82-404.26L1931.04-292.52 M1931.8-295.25L-180.55,895.15
				l229.78,407.74L2161.58,112.5L1931.8-295.25L1931.8-295.25z"/>
		</g>
	</g>
</g>
<g id="elements" class="st5">
	<rect x="505" y="216" class="st6" width="921" height="677"/>
	<rect x="505" y="216" class="st7" width="921" height="96"/>
	<rect x="804" y="216" class="st8" width="622" height="95"/>
	<g class="st9">
		<g>
			<path class="st3" d="M617.72,236.57h9.9c7.43,0,11.12,3.71,11.12,11.9v2.87c0,7.64-2.55,12.94-11.51,12.94h-3.06v20.38h-6.45
				V236.57z M624.17,258.96h2.38c4.97,0,5.77-2.97,5.77-7.8v-2.46c0-3.66-0.73-6.77-5.2-6.77h-2.95V258.96z"/>
			<path class="st3" d="M643.33,284.67v-50.21h6.45v50.21H643.33z"/>
			<path class="st3" d="M674.75,277.58c0,2.41,0.02,5.81,0.14,7.09h-5.92c-0.17-0.78-0.39-2.27-0.44-2.84
				c-1.23,2.46-3.35,3.41-6.08,3.41c-5.47,0-7.67-4.98-7.67-10.62v-0.65c0-8.81,5.75-11.46,12.39-11.46c0.34,0,0.71,0,1.16,0v-5.2
				c0-3.09-0.44-4.92-2.96-4.92c-2.47,0-3.09,1.91-3.09,4.45v0.76h-6.35v-0.66c0-5.28,2.04-9.87,9.67-9.87
				c6.86,0,9.16,3.98,9.16,9.74V277.58z M668.45,267.49c-0.37,0-1.15,0-1.47,0c-3.71,0-6.04,1.48-6.04,6.39v0.6
				c0,2.9,0.98,5.09,3.53,5.09c2.86,0,3.98-2.13,3.98-7.35V267.49z"/>
			<path class="st3" d="M685.29,247.65c2.17,12.68,4.22,24.6,4.53,29.18h0.17c0.69-6.21,2.58-15.46,4.87-29.18h6.47l-8.27,38.87
				c-2.27,10.51-5.81,11.09-9.96,11.09c-1.13,0-2.25-0.14-3.13-0.29l0.1-5.79c0.15,0.04,1.32,0.19,2.12,0.19
				c2.47,0,3.65-0.96,4.46-5.63l-8.29-38.44H685.29z"/>
		</g>
	</g>
	<g class="st9">
		<g>
			<path d="M846.88,288v-50.21h6.45V288H846.88z"/>
			<path d="M865.04,271.08v5.69c0,3.2,0.69,6.32,3.84,6.32c3.17,0,3.66-2.72,3.66-5.75v-0.23h6.3v0.21c0,4.05-0.9,11.25-9.85,11.25
				c-8.72,0-10.25-5.52-10.25-13.01v-12.82c0-5.29,1.75-12.33,10.26-12.33c7.58,0,9.95,5.31,9.95,12.3c0,2.1,0,6.25,0,8.37H865.04z
				 M872.76,265.96v-4.14c0-3.43-0.69-5.93-3.78-5.93c-2.84,0-3.89,2.19-3.89,5.95v4.12H872.76z"/>
			<path d="M902.64,280.91c0,2.41,0.02,5.81,0.14,7.09h-5.92c-0.17-0.78-0.39-2.27-0.44-2.84c-1.23,2.46-3.35,3.41-6.08,3.41
				c-5.47,0-7.67-4.98-7.67-10.62v-0.65c0-8.81,5.75-11.46,12.39-11.46c0.34,0,0.71,0,1.16,0v-5.2c0-3.09-0.44-4.92-2.96-4.92
				c-2.47,0-3.09,1.91-3.09,4.45v0.76h-6.35v-0.66c0-5.28,2.04-9.87,9.67-9.87c6.86,0,9.16,3.98,9.16,9.74V280.91z M896.34,270.82
				c-0.37,0-1.15,0-1.47,0c-3.71,0-6.04,1.48-6.04,6.39v0.6c0,2.9,0.98,5.09,3.53,5.09c2.86,0,3.98-2.13,3.98-7.35V270.82z"/>
			<path d="M928.83,237.79v40.25c0,5.12,0,7.92,0.07,9.96h-6.15c-0.12-0.84-0.25-2.85-0.25-3.57c-1.07,2.34-2.81,4.15-6.5,4.15
				c-6.48,0-7.87-5.15-7.87-12.29v-14.77c0-6.48,2.51-11.1,8.43-11.1c2.76,0,4.89,0.96,5.82,2.68v-15.3H928.83z M914.6,261.9v14.8
				c0,3.96,0.96,6.05,3.69,6.05c3.37,0,4.09-3.12,4.09-7.71v-11.71c0-4.03-0.38-7.1-3.97-7.1
				C915.63,256.23,914.6,258.42,914.6,261.9z"/>
			<path d="M940.5,271.08v5.69c0,3.2,0.69,6.32,3.84,6.32c3.17,0,3.66-2.72,3.66-5.75v-0.23h6.3v0.21c0,4.05-0.9,11.25-9.85,11.25
				c-8.72,0-10.25-5.52-10.25-13.01v-12.82c0-5.29,1.75-12.33,10.26-12.33c7.58,0,9.95,5.31,9.95,12.3c0,2.1,0,6.25,0,8.37H940.5z
				 M948.22,265.96v-4.14c0-3.43-0.69-5.93-3.78-5.93c-2.84,0-3.89,2.19-3.89,5.95v4.12H948.22z"/>
			<path d="M959.56,263.55c0-6.07,0.05-8.99-0.07-12.57h6.13c0.07,0.82,0.19,3.71,0.19,5.91c1.43-4.82,4.65-6.4,8.01-6.44v7.96
				c-4.37,0.02-7.81,1.75-7.81,8.96V288h-6.45V263.55z"/>
			<path d="M977.42,237.79h6.45v16.44c1.15-2.33,3.35-3.82,6.58-3.82c5.42,0,7.66,4.44,7.66,11v13.41c0,8.07-1.5,13.71-8.53,13.71
				c-3.54,0-5.24-1.76-6.13-3.92c-0.05,1.43-0.1,2.37-0.24,3.39h-5.86c0.12-2.34,0.07-5.63,0.07-9.64V237.79z M991.64,275.99v-13.56
				c0-3.81-0.73-6.19-3.58-6.19c-3.48,0-4.21,3.04-4.21,7.63v11.9c0,4.73,1.15,6.94,3.99,6.94
				C990.32,282.71,991.64,280.63,991.64,275.99z"/>
			<path d="M1023.15,261.99v14.75c0,7.97-3.88,11.83-10.43,11.83c-6.71,0-10.26-3.9-10.26-11.72v-15.09
				c0-7.64,4.22-11.35,10.48-11.35C1019.44,250.41,1023.15,254.5,1023.15,261.99z M1008.92,261.68v15.39c0,3.42,1.09,5.77,3.92,5.77
				c2.63,0,3.83-1.89,3.83-5.87v-15.34c0-3.18-0.95-5.49-3.86-5.49C1010.1,256.14,1008.92,258.09,1008.92,261.68z"/>
			<path d="M1047.07,280.91c0,2.41,0.02,5.81,0.14,7.09h-5.92c-0.17-0.78-0.39-2.27-0.44-2.84c-1.23,2.46-3.35,3.41-6.08,3.41
				c-5.47,0-7.67-4.98-7.67-10.62v-0.65c0-8.81,5.75-11.46,12.39-11.46c0.34,0,0.71,0,1.17,0v-5.2c0-3.09-0.44-4.92-2.96-4.92
				c-2.47,0-3.09,1.91-3.09,4.45v0.76h-6.35v-0.66c0-5.28,2.04-9.87,9.67-9.87c6.86,0,9.15,3.98,9.15,9.74V280.91z M1040.77,270.82
				c-0.37,0-1.15,0-1.47,0c-3.71,0-6.04,1.48-6.04,6.39v0.6c0,2.9,0.98,5.09,3.53,5.09c2.86,0,3.98-2.13,3.98-7.35V270.82z"/>
			<path d="M1053.59,263.55c0-6.07,0.05-8.99-0.07-12.57h6.13c0.07,0.82,0.19,3.71,0.19,5.91c1.43-4.82,4.65-6.4,8.01-6.44v7.96
				c-4.37,0.02-7.81,1.75-7.81,8.96V288h-6.45V263.55z"/>
			<path d="M1091.11,237.79v40.25c0,5.12,0,7.92,0.07,9.96h-6.15c-0.12-0.84-0.25-2.85-0.25-3.57c-1.07,2.34-2.81,4.15-6.5,4.15
				c-6.47,0-7.87-5.15-7.87-12.29v-14.77c0-6.48,2.51-11.1,8.43-11.1c2.76,0,4.89,0.96,5.82,2.68v-15.3H1091.11z M1076.89,261.9
				v14.8c0,3.96,0.96,6.05,3.68,6.05c3.37,0,4.09-3.12,4.09-7.71v-11.71c0-4.03-0.38-7.1-3.97-7.1
				C1077.92,256.23,1076.89,258.42,1076.89,261.9z"/>
		</g>
	</g>
	<g class="st9">
		<g>
			<path d="M1151.33,234.79v16.37c1.07-2.14,3.18-3.75,6.83-3.75c5.61,0,7.32,4.21,7.32,9.52V285h-6.45v-26.38
				c0-2.88-0.49-5.38-3.53-5.38c-3.32,0-4.18,2.36-4.18,7.07V285h-6.45v-50.21H1151.33z"/>
			<path d="M1191.62,258.99v14.75c0,7.97-3.88,11.83-10.43,11.83c-6.71,0-10.26-3.9-10.26-11.72v-15.09
				c0-7.64,4.22-11.35,10.48-11.35C1187.91,247.41,1191.62,251.5,1191.62,258.99z M1177.4,258.68v15.39c0,3.42,1.09,5.77,3.91,5.77
				c2.63,0,3.84-1.89,3.84-5.87v-15.34c0-3.18-0.95-5.49-3.86-5.49C1178.58,253.14,1177.4,255.09,1177.4,258.68z"/>
			<path d="M1201.09,247.99c2.46,18.33,3.08,23.53,3.41,28h0.07c0.47-4.69,1.67-10.64,4.49-28h6.12c2.84,17.74,3.97,23.4,4.36,28.01
				h0.07c0.36-4,0.7-8,3.5-28.01h6.47l-6.9,37.01h-6.41c-1.83-11.32-3.71-20.83-4.33-26.41h-0.07c-0.43,5.21-2.28,14.04-4.55,26.41
				h-6.51l-6.56-37.01H1201.09z"/>
			<path d="M1239.4,247.99h4.06v-8.97h6.43v8.97h4.88v5.68h-4.88v23.12c0,1.81,0.28,3.39,2.56,3.39c0.67,0,1.69-0.07,2.14-0.22v4.91
				c-1.19,0.54-2.96,0.66-4.29,0.66c-4.19,0-6.83-1.49-6.83-7.58v-24.28h-4.06V247.99z"/>
			<path d="M1278.09,258.99v14.75c0,7.97-3.88,11.83-10.43,11.83c-6.71,0-10.26-3.9-10.26-11.72v-15.09
				c0-7.64,4.22-11.35,10.48-11.35C1274.38,247.41,1278.09,251.5,1278.09,258.99z M1263.87,258.68v15.39c0,3.42,1.09,5.77,3.92,5.77
				c2.63,0,3.84-1.89,3.84-5.87v-15.34c0-3.18-0.95-5.49-3.87-5.49C1265.05,253.14,1263.87,255.09,1263.87,258.68z"/>
			<path d="M1299.51,282.22v15.22h-6.45v-38.81c0-5.02,0-8.37-0.07-10.64h6.16c0.12,0.71,0.25,2.29,0.25,3.77
				c1.02-2.42,3.05-4.35,6.76-4.35c5.13,0,7.6,3.55,7.6,10.8v15.39c0,8.39-2.95,11.98-8.3,11.98
				C1302.06,285.58,1300.39,283.9,1299.51,282.22z M1307.28,273.69v-15.01c0-3.83-1.3-5.45-3.54-5.45c-3.01,0-4.25,2.21-4.25,6.71
				v12.53c0,4,0.66,7.27,3.94,7.27C1306.33,279.75,1307.28,277.48,1307.28,273.69z"/>
			<path d="M1319.19,285v-50.21h6.45V285H1319.19z"/>
			<path d="M1350.61,277.91c0,2.41,0.02,5.81,0.14,7.09h-5.92c-0.17-0.78-0.39-2.27-0.44-2.84c-1.23,2.46-3.35,3.41-6.09,3.41
				c-5.47,0-7.67-4.98-7.67-10.62v-0.65c0-8.81,5.75-11.46,12.39-11.46c0.34,0,0.71,0,1.16,0v-5.2c0-3.09-0.44-4.92-2.96-4.92
				c-2.47,0-3.09,1.91-3.09,4.45v0.76h-6.35v-0.66c0-5.28,2.04-9.87,9.67-9.87c6.86,0,9.16,3.98,9.16,9.74V277.91z M1344.31,267.82
				c-0.37,0-1.15,0-1.47,0c-3.71,0-6.04,1.48-6.04,6.39v0.6c0,2.9,0.98,5.09,3.53,5.09c2.86,0,3.98-2.13,3.98-7.35V267.82z"/>
			<path d="M1361.15,247.99c2.17,12.68,4.22,24.6,4.53,29.18h0.17c0.69-6.21,2.58-15.46,4.87-29.18h6.47l-8.27,38.87
				c-2.27,10.51-5.81,11.09-9.96,11.09c-1.13,0-2.25-0.14-3.13-0.29l0.1-5.79c0.15,0.04,1.32,0.19,2.12,0.19
				c2.47,0,3.65-0.96,4.46-5.63l-8.29-38.44H1361.15z"/>
		</g>
	</g>
</g>
<g id="tervehdys" class="st5">
	<rect x="580" y="299" class="st10" width="736" height="325"/>
	<g class="st9">
		<g>
			<path class="st3" d="M753.15,429.67l-6.64-48.1h6.87c1.27,10.93,3.14,28.69,3.52,37.14h0.12c0.92-9.15,3.46-26.24,4.93-37.14
				h6.38c1.52,11.14,4.04,27.06,4.86,36.84h0.17c0.55-8.9,2.45-25.58,3.72-36.84h6.54l-7.19,48.1h-6.72
				c-1.45-10.98-3.78-26.42-4.74-35.5h-0.12c-1.07,9.5-3.5,24.81-5.04,35.5H753.15z"/>
			<path class="st3" d="M792.89,412.75v5.69c0,3.2,0.69,6.32,3.84,6.32c3.17,0,3.66-2.72,3.66-5.75v-0.23h6.3v0.21
				c0,4.05-0.9,11.25-9.85,11.25c-8.72,0-10.25-5.52-10.25-13.01v-12.82c0-5.29,1.75-12.33,10.26-12.33c7.58,0,9.95,5.31,9.95,12.3
				c0,2.1,0,6.25,0,8.37H792.89z M800.61,407.62v-4.14c0-3.43-0.69-5.93-3.78-5.93c-2.84,0-3.89,2.19-3.89,5.95v4.12H800.61z"/>
			<path class="st3" d="M811.96,429.67v-50.21h6.45v50.21H811.96z"/>
			<path class="st3" d="M843.29,417.63v0.5c0,6.56-1.66,12.11-9.85,12.11c-7.99,0-9.63-5.42-9.63-13v-13.4
				c0-6.13,2.12-11.77,9.97-11.77c8.44,0,9.51,6.14,9.51,10.87v1.43h-6.37v-1.44c0-3.06-0.5-5.38-3.26-5.38
				c-2.47,0-3.37,1.89-3.37,5.53v15.97c0,2.89,0.54,5.71,3.33,5.71c2.6,0,3.3-1.92,3.3-5.63v-1.51H843.29z"/>
			<path class="st3" d="M867.62,403.66v14.75c0,7.97-3.88,11.83-10.43,11.83c-6.71,0-10.26-3.9-10.26-11.72v-15.09
				c0-7.64,4.22-11.35,10.48-11.35C863.91,392.08,867.62,396.17,867.62,403.66z M853.4,403.35v15.39c0,3.42,1.09,5.77,3.92,5.77
				c2.63,0,3.84-1.89,3.84-5.87V403.3c0-3.18-0.95-5.49-3.86-5.49C854.58,397.81,853.4,399.76,853.4,403.35z"/>
			<path class="st3" d="M873.01,403.35c0-7.09,0-8.98-0.07-10.7h6.15c0.19,1.11,0.19,2.09,0.25,3.35c1.22-2.5,3.37-3.92,6.43-3.92
				c2.95,0,4.98,1.26,5.85,4.11c1.24-2.15,3.16-4.11,6.99-4.11c3.85,0,7.17,1.86,7.17,9.05v28.54h-6.45v-27.31
				c0-2.71-0.63-4.45-3.04-4.45c-2.96,0-3.64,2.46-3.64,6.25v25.51h-6.5v-27.08c0-3.63-1.01-4.68-3.09-4.68
				c-2.94,0-3.6,2.5-3.6,6.32v25.45h-6.45V403.35z"/>
			<path class="st3" d="M917.52,412.75v5.69c0,3.2,0.69,6.32,3.84,6.32c3.17,0,3.66-2.72,3.66-5.75v-0.23h6.3v0.21
				c0,4.05-0.9,11.25-9.85,11.25c-8.72,0-10.25-5.52-10.25-13.01v-12.82c0-5.29,1.75-12.33,10.26-12.33c7.58,0,9.95,5.31,9.95,12.3
				c0,2.1,0,6.25,0,8.37H917.52z M925.24,407.62v-4.14c0-3.43-0.69-5.93-3.78-5.93c-2.84,0-3.89,2.19-3.89,5.95v4.12H925.24z"/>
			<path class="st3" d="M946.16,379.46h6.45v16.44c1.15-2.33,3.35-3.82,6.58-3.82c5.42,0,7.66,4.44,7.66,11v13.41
				c0,8.07-1.5,13.71-8.53,13.71c-3.54,0-5.23-1.76-6.13-3.92c-0.05,1.43-0.1,2.37-0.25,3.39h-5.86c0.12-2.34,0.07-5.63,0.07-9.64
				V379.46z M960.38,417.65v-13.56c0-3.81-0.73-6.19-3.58-6.19c-3.48,0-4.21,3.04-4.21,7.63v11.9c0,4.73,1.15,6.94,3.99,6.94
				C959.06,424.38,960.38,422.3,960.38,417.65z"/>
			<path class="st3" d="M990.76,422.58c0,2.41,0.02,5.81,0.14,7.09h-5.92c-0.17-0.78-0.39-2.27-0.44-2.84
				c-1.23,2.46-3.35,3.41-6.09,3.41c-5.47,0-7.67-4.98-7.67-10.62v-0.65c0-8.81,5.75-11.46,12.39-11.46c0.34,0,0.71,0,1.16,0v-5.2
				c0-3.09-0.44-4.92-2.96-4.92c-2.47,0-3.09,1.91-3.09,4.45v0.76h-6.35v-0.66c0-5.28,2.04-9.87,9.67-9.87
				c6.86,0,9.16,3.98,9.16,9.74V422.58z M984.46,412.49c-0.37,0-1.15,0-1.47,0c-3.71,0-6.04,1.48-6.04,6.39v0.6
				c0,2.9,0.98,5.09,3.53,5.09c2.86,0,3.98-2.13,3.98-7.35V412.49z"/>
			<path class="st3" d="M1015.73,417.63v0.5c0,6.56-1.66,12.11-9.85,12.11c-7.99,0-9.63-5.42-9.63-13v-13.4
				c0-6.13,2.12-11.77,9.97-11.77c8.44,0,9.51,6.14,9.51,10.87v1.43h-6.37v-1.44c0-3.06-0.5-5.38-3.26-5.38
				c-2.47,0-3.38,1.89-3.38,5.53v15.97c0,2.89,0.54,5.71,3.33,5.71c2.6,0,3.3-1.92,3.3-5.63v-1.51H1015.73z"/>
			<path class="st3" d="M1026.79,409.18h0.12c1.69-4.11,5.27-11.94,7.23-16.52h6.8l-6.88,13.64l7.64,23.37h-7.04l-5.05-17.1
				l-2.81,5.46v11.64h-6.4v-50.21h6.4V409.18z"/>
			<path class="st3" d="M1053.68,429.67v-48.1h7.54c2.2,7.68,8.34,32.04,8.97,35.17h0.09c-0.32-6.15-0.36-12.92-0.36-20.79v-14.38h6
				v48.1h-7.27c-1.96-7.13-8.57-33.55-9.23-36.33h-0.07c0.34,5.81,0.37,12.82,0.37,21.48v14.85H1053.68z"/>
			<path class="st3" d="M1082.53,392.65h6.45v37.01h-6.45V392.65z M1082.58,379.46h6.45v7.72h-6.45V379.46z"/>
			<path class="st3" d="M1101.89,409.18h0.12c1.69-4.11,5.27-11.94,7.23-16.52h6.8l-6.88,13.64l7.64,23.37h-7.04l-5.05-17.1
				l-2.81,5.46v11.64h-6.4v-50.21h6.4V409.18z"/>
			<path class="st3" d="M1119.03,429.67v-50.21h6.45v50.21H1119.03z"/>
			<path class="st3" d="M1150.45,422.58c0,2.41,0.02,5.81,0.14,7.09h-5.92c-0.17-0.78-0.39-2.27-0.44-2.84
				c-1.23,2.46-3.35,3.41-6.08,3.41c-5.47,0-7.67-4.98-7.67-10.62v-0.65c0-8.81,5.75-11.46,12.39-11.46c0.34,0,0.71,0,1.17,0v-5.2
				c0-3.09-0.44-4.92-2.96-4.92c-2.47,0-3.09,1.91-3.09,4.45v0.76h-6.35v-0.66c0-5.28,2.05-9.87,9.67-9.87
				c6.86,0,9.16,3.98,9.16,9.74V422.58z M1144.15,412.49c-0.37,0-1.15,0-1.47,0c-3.71,0-6.04,1.48-6.04,6.39v0.6
				c0,2.9,0.98,5.09,3.53,5.09c2.86,0,3.98-2.13,3.98-7.35V412.49z"/>
			<path class="st3" d="M1161.44,418.32v1.66c0,2.83,0.97,4.78,3.45,4.78c2.34,0,3.3-1.45,3.3-4.3c0-2.88-0.83-4.56-5.21-7.41
				c-5.03-3.27-7.42-5.92-7.42-11.15c0-5.93,3.06-9.83,9.34-9.83c6.81,0,9.28,3.99,9.28,10.26v1.57h-6.25v-2.18
				c0-2.81-0.89-4.17-3.02-4.17c-2.09,0-2.93,1.48-2.93,3.81c0,2.41,0.78,3.49,4.28,5.77c6.04,3.89,8.45,6.49,8.45,12.57
				c0,6.93-3.33,10.54-10.04,10.54c-7.87,0-9.75-5.06-9.75-10.26v-1.66H1161.44z"/>
		</g>
	</g>
	<g class="st9">
		<g>
			<path class="st3" d="M708.25,480.86v26.83c0,3.42,0,5.28,0.05,6.64h-4.1c-0.08-0.56-0.16-1.9-0.16-2.38
				c-0.72,1.56-1.87,2.77-4.33,2.77c-4.32,0-5.25-3.43-5.25-8.2v-9.85c0-4.32,1.68-7.4,5.62-7.4c1.84,0,3.26,0.64,3.88,1.79v-10.2
				H708.25z M698.77,496.94v9.86c0,2.64,0.64,4.03,2.46,4.03c2.25,0,2.73-2.08,2.73-5.14v-7.81c0-2.69-0.25-4.73-2.65-4.73
				C699.46,493.16,698.77,494.61,698.77,496.94z"/>
			<path class="st3" d="M725.63,497v9.83c0,5.31-2.59,7.89-6.95,7.89c-4.47,0-6.84-2.6-6.84-7.82v-10.06c0-5.1,2.81-7.57,6.99-7.57
				C723.16,489.27,725.63,492,725.63,497z M716.15,496.79v10.26c0,2.28,0.73,3.85,2.61,3.85c1.76,0,2.56-1.26,2.56-3.92v-10.23
				c0-2.12-0.63-3.66-2.58-3.66C716.94,493.09,716.15,494.39,716.15,496.79z"/>
			<path class="st3" d="M738.29,489.66c1.45,8.45,2.82,16.4,3.02,19.45h0.12c0.46-4.14,1.72-10.3,3.25-19.45h4.31l-5.52,25.91
				c-1.51,7-3.88,7.39-6.64,7.39c-0.75,0-1.5-0.1-2.09-0.19l0.07-3.86c0.1,0.03,0.88,0.12,1.42,0.12c1.65,0,2.43-0.64,2.98-3.75
				l-5.53-25.63H738.29z"/>
			<path class="st3" d="M764.41,497v9.83c0,5.31-2.59,7.89-6.95,7.89c-4.47,0-6.84-2.6-6.84-7.82v-10.06c0-5.1,2.81-7.57,6.99-7.57
				C761.94,489.27,764.41,492,764.41,497z M754.93,496.79v10.26c0,2.28,0.73,3.85,2.61,3.85c1.76,0,2.56-1.26,2.56-3.92v-10.23
				c0-2.12-0.63-3.66-2.58-3.66C755.72,493.09,754.93,494.39,754.93,496.79z"/>
			<path class="st3" d="M781.61,507.35c0,3.45,0,5.74,0.05,6.98h-4.1c-0.08-0.48-0.16-1.68-0.16-2.43
				c-0.83,2.19-2.47,2.82-4.53,2.82c-2.19,0-4.86-0.97-4.86-6.37v-18.69h4.3v17.57c0,2.54,0.71,3.62,2.33,3.62
				c1.66,0,2.68-1.02,2.68-4.86v-16.33h4.3V507.35z"/>
			<path class="st3" d="M795.28,506.77v1.11c0,1.88,0.65,3.19,2.3,3.19c1.56,0,2.2-0.96,2.2-2.87c0-1.92-0.56-3.04-3.47-4.94
				c-3.36-2.18-4.95-3.95-4.95-7.43c0-3.95,2.04-6.55,6.23-6.55c4.54,0,6.19,2.66,6.19,6.84v1.05h-4.17v-1.46
				c0-1.88-0.59-2.78-2.01-2.78c-1.39,0-1.95,0.99-1.95,2.54c0,1.61,0.52,2.33,2.86,3.85c4.03,2.59,5.63,4.33,5.63,8.38
				c0,4.62-2.22,7.02-6.69,7.02c-5.25,0-6.5-3.37-6.5-6.84v-1.1H795.28z"/>
			<path class="st3" d="M805.05,489.66h2.71v-5.98h4.29v5.98h3.25v3.79h-3.25v15.41c0,1.21,0.19,2.26,1.7,2.26
				c0.45,0,1.13-0.05,1.43-0.14v3.27c-0.79,0.36-1.97,0.44-2.86,0.44c-2.8,0-4.55-0.99-4.55-5.06v-16.19h-2.71V489.66z"/>
			<path class="st3" d="M817.73,489.66h4.3v24.68h-4.3V489.66z M817.77,480.86h4.3v5.15h-4.3V480.86z"/>
			<path class="st3" d="M826.37,514.33v-33.47h4.3v33.47H826.37z"/>
			<path class="st3" d="M834.97,514.33v-33.47h4.3v33.47H834.97z"/>
			<path class="st3" d="M852.66,489.66c1.64,12.22,2.05,15.68,2.27,18.67h0.05c0.32-3.13,1.11-7.1,2.99-18.67h4.08
				c1.89,11.82,2.65,15.6,2.9,18.67h0.05c0.24-2.67,0.46-5.33,2.34-18.67h4.31l-4.6,24.68h-4.28c-1.22-7.54-2.48-13.89-2.89-17.61
				h-0.05c-0.29,3.48-1.52,9.36-3.03,17.61h-4.34l-4.37-24.68H852.66z"/>
			<path class="st3" d="M886.44,509.61c0,1.61,0.01,3.88,0.1,4.73h-3.95c-0.11-0.52-0.26-1.51-0.29-1.89
				c-0.82,1.64-2.23,2.28-4.06,2.28c-3.65,0-5.11-3.32-5.11-7.08v-0.43c0-5.87,3.83-7.64,8.26-7.64c0.23,0,0.47,0,0.78,0v-3.46
				c0-2.06-0.29-3.28-1.97-3.28c-1.65,0-2.06,1.27-2.06,2.97v0.51h-4.23v-0.44c0-3.52,1.36-6.58,6.44-6.58c4.57,0,6.1,2.65,6.1,6.5
				V509.61z M882.24,502.88c-0.25,0-0.77,0-0.98,0c-2.47,0-4.03,0.98-4.03,4.26v0.4c0,1.93,0.65,3.4,2.35,3.4
				c1.9,0,2.65-1.42,2.65-4.9V502.88z"/>
			<path class="st3" d="M890.79,497.23c0-4.99,0-6.41-0.05-7.57h4.1c0.08,0.56,0.16,1.48,0.16,2.34c0.72-1.59,2.1-2.72,4.54-2.72
				c2.88,0,4.98,1.7,4.98,6.31v18.75h-4.3v-17.92c0-2.29-0.78-3.25-2.32-3.25c-1.88,0-2.82,0.97-2.82,4.87v16.31h-4.3V497.23z"/>
			<path class="st3" d="M906.56,489.66h2.71v-5.98h4.29v5.98h3.25v3.79h-3.25v15.41c0,1.21,0.19,2.26,1.7,2.26
				c0.45,0,1.13-0.05,1.42-0.14v3.27c-0.79,0.36-1.97,0.44-2.86,0.44c-2.8,0-4.55-0.99-4.55-5.06v-16.19h-2.71V489.66z"/>
			<path class="st3" d="M923.36,489.66h2.71v-5.98h4.29v5.98h3.25v3.79h-3.25v15.41c0,1.21,0.19,2.26,1.7,2.26
				c0.45,0,1.13-0.05,1.42-0.14v3.27c-0.79,0.36-1.97,0.44-2.86,0.44c-2.8,0-4.55-0.99-4.55-5.06v-16.19h-2.71V489.66z"/>
			<path class="st3" d="M949.16,497v9.83c0,5.31-2.59,7.89-6.95,7.89c-4.47,0-6.84-2.6-6.84-7.82v-10.06c0-5.1,2.81-7.57,6.99-7.57
				C946.69,489.27,949.16,492,949.16,497z M939.68,496.79v10.26c0,2.28,0.73,3.85,2.61,3.85c1.76,0,2.56-1.26,2.56-3.92v-10.23
				c0-2.12-0.63-3.66-2.58-3.66C940.47,493.09,939.68,494.39,939.68,496.79z"/>
			<path class="st3" d="M959.14,498.04c0-4.05,0.03-6-0.05-8.38h4.08c0.05,0.55,0.13,2.47,0.13,3.94c0.95-3.21,3.1-4.26,5.34-4.29
				v5.3c-2.91,0.01-5.2,1.16-5.2,5.97v13.76h-4.3V498.04z"/>
			<path class="st3" d="M974.55,503.05v3.8c0,2.14,0.46,4.22,2.56,4.22c2.12,0,2.44-1.81,2.44-3.83v-0.15h4.2v0.14
				c0,2.7-0.6,7.5-6.56,7.5c-5.81,0-6.83-3.68-6.83-8.68v-8.55c0-3.53,1.17-8.22,6.84-8.22c5.06,0,6.64,3.54,6.64,8.2
				c0,1.4,0,4.17,0,5.58H974.55z M979.7,499.64v-2.76c0-2.29-0.46-3.95-2.52-3.95c-1.89,0-2.6,1.46-2.6,3.97v2.74H979.7z"/>
			<path class="st3" d="M999.62,509.61c0,1.61,0.01,3.88,0.1,4.73h-3.95c-0.11-0.52-0.26-1.51-0.29-1.89
				c-0.82,1.64-2.23,2.28-4.06,2.28c-3.65,0-5.11-3.32-5.11-7.08v-0.43c0-5.87,3.83-7.64,8.26-7.64c0.22,0,0.47,0,0.78,0v-3.46
				c0-2.06-0.29-3.28-1.97-3.28c-1.65,0-2.06,1.27-2.06,2.97v0.51h-4.23v-0.44c0-3.52,1.36-6.58,6.44-6.58c4.57,0,6.1,2.65,6.1,6.5
				V509.61z M995.42,502.88c-0.25,0-0.77,0-0.98,0c-2.47,0-4.03,0.98-4.03,4.26v0.4c0,1.93,0.65,3.4,2.35,3.4
				c1.9,0,2.65-1.42,2.65-4.9V502.88z"/>
			<path class="st3" d="M1017.08,480.86v26.83c0,3.42,0,5.28,0.05,6.64h-4.1c-0.08-0.56-0.16-1.9-0.16-2.38
				c-0.71,1.56-1.87,2.77-4.33,2.77c-4.32,0-5.25-3.43-5.25-8.2v-9.85c0-4.32,1.67-7.4,5.62-7.4c1.84,0,3.26,0.64,3.88,1.79v-10.2
				H1017.08z M1007.6,496.94v9.86c0,2.64,0.64,4.03,2.46,4.03c2.25,0,2.72-2.08,2.72-5.14v-7.81c0-2.69-0.25-4.73-2.65-4.73
				C1008.28,493.16,1007.6,494.61,1007.6,496.94z"/>
			<path class="st3" d="M1027.73,489.66h4.3v24.68h-4.3V489.66z M1027.76,480.86h4.3v5.15h-4.3V480.86z"/>
			<path class="st3" d="M1036.37,497.23c0-4.99,0-6.41-0.05-7.57h4.1c0.08,0.56,0.16,1.48,0.16,2.34c0.72-1.59,2.1-2.72,4.54-2.72
				c2.88,0,4.98,1.7,4.98,6.31v18.75h-4.3v-17.92c0-2.29-0.78-3.25-2.32-3.25c-1.88,0-2.82,0.97-2.82,4.87v16.31h-4.3V497.23z"/>
			<path class="st3" d="M1057.4,506.77v1.11c0,1.88,0.65,3.19,2.3,3.19c1.56,0,2.2-0.96,2.2-2.87c0-1.92-0.56-3.04-3.47-4.94
				c-3.36-2.18-4.95-3.95-4.95-7.43c0-3.95,2.04-6.55,6.23-6.55c4.54,0,6.19,2.66,6.19,6.84v1.05h-4.17v-1.46
				c0-1.88-0.59-2.78-2.01-2.78c-1.39,0-1.95,0.99-1.95,2.54c0,1.61,0.52,2.33,2.86,3.85c4.03,2.59,5.63,4.33,5.63,8.38
				c0,4.62-2.22,7.02-6.69,7.02c-5.25,0-6.5-3.37-6.5-6.84v-1.1H1057.4z"/>
			<path class="st3" d="M1067.17,489.66h2.71v-5.98h4.29v5.98h3.25v3.79h-3.25v15.41c0,1.21,0.19,2.26,1.7,2.26
				c0.45,0,1.13-0.05,1.42-0.14v3.27c-0.79,0.36-1.97,0.44-2.86,0.44c-2.8,0-4.55-0.99-4.55-5.06v-16.19h-2.71V489.66z"/>
			<path class="st3" d="M1079.86,498.04c0-4.05,0.03-6-0.05-8.38h4.08c0.05,0.55,0.13,2.47,0.13,3.94c0.95-3.21,3.1-4.26,5.34-4.29
				v5.3c-2.91,0.01-5.2,1.16-5.2,5.97v13.76h-4.3V498.04z"/>
			<path class="st3" d="M1105.36,507.35c0,3.45,0,5.74,0.05,6.98h-4.1c-0.08-0.48-0.16-1.68-0.16-2.43
				c-0.83,2.19-2.47,2.82-4.53,2.82c-2.18,0-4.86-0.97-4.86-6.37v-18.69h4.3v17.57c0,2.54,0.71,3.62,2.33,3.62
				c1.66,0,2.68-1.02,2.68-4.86v-16.33h4.3V507.35z"/>
			<path class="st3" d="M1121.96,506.31v0.34c0,4.37-1.11,8.08-6.56,8.08c-5.33,0-6.42-3.61-6.42-8.67v-8.93
				c0-4.09,1.41-7.85,6.65-7.85c5.62,0,6.34,4.09,6.34,7.25v0.96h-4.25v-0.96c0-2.04-0.33-3.59-2.17-3.59
				c-1.65,0-2.25,1.26-2.25,3.69v10.65c0,1.93,0.36,3.8,2.22,3.8c1.73,0,2.2-1.28,2.2-3.75v-1.01H1121.96z"/>
			<path class="st3" d="M1122.8,489.66h2.71v-5.98h4.29v5.98h3.25v3.79h-3.25v15.41c0,1.21,0.19,2.26,1.7,2.26
				c0.45,0,1.13-0.05,1.42-0.14v3.27c-0.79,0.36-1.97,0.44-2.86,0.44c-2.8,0-4.55-0.99-4.55-5.06v-16.19h-2.71V489.66z"/>
			<path class="st3" d="M1135.49,489.66h4.3v24.68h-4.3V489.66z M1135.52,480.86h4.3v5.15h-4.3V480.86z"/>
			<path class="st3" d="M1157.23,497v9.83c0,5.31-2.59,7.89-6.95,7.89c-4.47,0-6.84-2.6-6.84-7.82v-10.06c0-5.1,2.81-7.57,6.99-7.57
				C1154.76,489.27,1157.23,492,1157.23,497z M1147.75,496.79v10.26c0,2.28,0.73,3.85,2.61,3.85c1.76,0,2.56-1.26,2.56-3.92v-10.23
				c0-2.12-0.63-3.66-2.58-3.66C1148.54,493.09,1147.75,494.39,1147.75,496.79z"/>
			<path class="st3" d="M1160.83,497.23c0-4.99,0-6.41-0.05-7.57h4.1c0.08,0.56,0.16,1.48,0.16,2.34c0.72-1.59,2.1-2.72,4.54-2.72
				c2.88,0,4.98,1.7,4.98,6.31v18.75h-4.3v-17.92c0-2.29-0.78-3.25-2.32-3.25c-1.88,0-2.82,0.97-2.82,4.87v16.31h-4.3V497.23z"/>
			<path class="st3" d="M1181.86,506.77v1.11c0,1.88,0.65,3.19,2.3,3.19c1.56,0,2.2-0.96,2.2-2.87c0-1.92-0.56-3.04-3.47-4.94
				c-3.36-2.18-4.95-3.95-4.95-7.43c0-3.95,2.04-6.55,6.23-6.55c4.54,0,6.19,2.66,6.19,6.84v1.05h-4.17v-1.46
				c0-1.88-0.59-2.78-2.01-2.78c-1.39,0-1.95,0.99-1.95,2.54c0,1.61,0.52,2.33,2.86,3.85c4.03,2.59,5.63,4.33,5.63,8.38
				c0,4.62-2.22,7.02-6.69,7.02c-5.25,0-6.5-3.37-6.5-6.84v-1.1H1181.86z"/>
			<path class="st3" d="M1197.54,504.45v-0.91c0-2.49,0.44-4.83,2.36-8.06c1.4-2.38,1.93-3.67,1.93-6.6c0-2.43-0.41-3.55-2.03-3.55
				c-1.54,0-2.07,1.25-2.07,3.28v1.46h-4.03v-1.18c0-3.71,1.25-7.01,6.35-7.01c4.58,0,6.09,2.77,6.09,7.1c0,3.8-0.82,5.51-2.87,9.15
				c-1.21,2.16-1.43,4-1.43,5.86v0.46H1197.54z M1197.53,514.33v-6.49h4.3v6.49H1197.53z"/>
		</g>
	</g>
</g>
<g id="nappi" class="st5">
	<g class="st9">
		<g>
			<defs>
				<path id="SVGID_1_" d="M1131.68,509.61l-115.81,2.41l1.38,66.18l115.81-2.41L1131.68,509.61z M913.65,507.77l-115.81,2.42
					l1.36,65.16l115.81-2.42L913.65,507.77z M966,512l-109.05,17.85l-58.02,45.2l20.15,51.4l88.9,33.55h116.05l88.9-33.55
					l20.15-51.4l-58.02-45.2L966,512z"/>
			</defs>
			<clipPath id="SVGID_4_">
				<use xlink:href="#SVGID_1_"  style="overflow:visible;"/>
			</clipPath>
			<g class="st11">
			</g>
		</g>
	</g>
	<g class="st9">
		<polygon class="st12" points="818.47,561.07 798.53,510.17 856.19,465.19 965.1,447.3 1074.04,465.08 1131.73,510.02 
			1111.77,560.96 1023.08,594.48 907.12,594.52 		"/>
		<path class="st13" d="M965.1,447.8l108.73,17.76l57.3,44.63l-19.74,50.38l-88.4,33.41l-115.77,0.04l-88.36-33.34l-19.73-50.35
			l57.26-44.67L965.1,447.8 M965.1,446.79l-109.12,17.93L797.93,510l20.16,51.45l88.94,33.56l116.14-0.04l88.99-33.63l20.17-51.49
			l-58.09-45.25L965.1,446.79L965.1,446.79z"/>
	</g>
	<g class="st9">
		<rect x="907.44" y="593.94" class="st13" width="1" height="66.19"/>
	</g>
	<g class="st9">
		
			<rect x="818.48" y="561" transform="matrix(0.9999 -0.0124 0.0124 0.9999 -7.3117 10.2137)" class="st13" width="1" height="66.02"/>
	</g>
	<g class="st9">
		
			<rect x="1023.38" y="593.99" transform="matrix(0.9999 -0.0131 0.0131 0.9999 -8.1167 13.4507)" class="st13" width="1" height="66.06"/>
	</g>
	<g class="st9">
		<rect x="1112" y="559" class="st13" width="1" height="68"/>
	</g>
	<g class="st9">
		<g>
			<path d="M872.4,495.16v33.54c0,4.27,0,6.6,0.06,8.3h-5.13c-0.1-0.7-0.2-2.38-0.2-2.98c-0.89,1.95-2.34,3.46-5.41,3.46
				c-5.4,0-6.56-4.29-6.56-10.24v-12.31c0-5.4,2.09-9.25,7.02-9.25c2.3,0,4.07,0.8,4.85,2.23v-12.75H872.4z M860.55,515.26v12.33
				c0,3.3,0.8,5.04,3.07,5.04c2.81,0,3.41-2.6,3.41-6.42v-9.76c0-3.36-0.32-5.91-3.31-5.91
				C861.41,510.53,860.55,512.35,860.55,515.26z"/>
			<path d="M893.18,531.09c0,2.01,0.02,4.84,0.12,5.91h-4.94c-0.14-0.65-0.32-1.89-0.37-2.36c-1.03,2.05-2.79,2.84-5.07,2.84
				c-4.56,0-6.39-4.15-6.39-8.85v-0.54c0-7.34,4.79-9.55,10.32-9.55c0.28,0,0.59,0,0.97,0v-4.33c0-2.57-0.37-4.1-2.46-4.1
				c-2.06,0-2.58,1.59-2.58,3.71v0.63h-5.29v-0.55c0-4.4,1.7-8.23,8.05-8.23c5.71,0,7.63,3.32,7.63,8.12V531.09z M887.93,522.69
				c-0.31,0-0.96,0-1.22,0c-3.09,0-5.03,1.23-5.03,5.33v0.5c0,2.42,0.82,4.25,2.94,4.25c2.38,0,3.32-1.77,3.32-6.12V522.69z"/>
			<path d="M898.61,516.63c0-5.06,0.04-7.49-0.06-10.47h5.1c0.06,0.68,0.16,3.09,0.16,4.92c1.19-4.02,3.88-5.33,6.67-5.36v6.63
				c-3.64,0.02-6.5,1.46-6.5,7.46V537h-5.37V516.63z"/>
			<path d="M913.49,506.16h5.37V537h-5.37V506.16z M913.54,495.16h5.37v6.43h-5.37V495.16z"/>
			<path d="M924.29,515.62c0-6.23,0-8.01-0.06-9.46h5.13c0.1,0.7,0.2,1.85,0.2,2.92c0.9-1.98,2.63-3.4,5.67-3.4
				c3.6,0,6.23,2.13,6.23,7.89V537h-5.37v-22.4c0-2.87-0.98-4.07-2.9-4.07c-2.35,0-3.53,1.21-3.53,6.09V537h-5.38V515.62z"/>
			<path d="M963.22,535.73c0,6.59-0.68,12.12-9.01,12.12c-6.96,0-8.19-4.49-8.19-7.88v-0.14h5.39v0.16c0,1.13,0.42,3.38,3.08,3.38
				c2.81,0,3.35-2.13,3.35-6.25v-3.62c-0.8,1.87-2.48,2.99-5.14,2.99c-5.24,0-6.71-3.98-6.71-9.57v-11.96c0-4.71,1.9-9.29,7.36-9.29
				c3.21,0,4.58,1.55,5.07,3.19c0-0.91,0.16-2.14,0.26-2.71h4.65c-0.06,1.82-0.12,4.46-0.12,7.88V535.73z M951.39,515.28v11.24
				c0,3.48,0.86,5.21,2.99,5.21c2.99,0,3.48-2.67,3.48-6.6v-9.07c0-3.01-0.31-5.53-3.13-5.53
				C952.48,510.53,951.39,512.08,951.39,515.28z"/>
			<path d="M973.71,506.16h3.38v-7.48h5.36v7.48h4.07v4.73h-4.07v19.27c0,1.51,0.23,2.82,2.13,2.82c0.56,0,1.41-0.06,1.78-0.18v4.09
				c-0.99,0.45-2.47,0.55-3.58,0.55c-3.49,0-5.69-1.24-5.69-6.32v-20.23h-3.38V506.16z"/>
			<path d="M1005.96,515.33v12.29c0,6.64-3.23,9.86-8.69,9.86c-5.59,0-8.55-3.25-8.55-9.77v-12.57c0-6.37,3.52-9.46,8.73-9.46
				C1002.87,505.68,1005.96,509.09,1005.96,515.33z M994.11,515.07v12.83c0,2.85,0.91,4.81,3.26,4.81c2.2,0,3.2-1.57,3.2-4.89
				v-12.78c0-2.65-0.79-4.58-3.22-4.58C995.09,510.45,994.11,512.08,994.11,515.07z"/>
			<path d="M1026.84,495.16v33.54c0,4.27,0,6.6,0.06,8.3h-5.13c-0.1-0.7-0.2-2.38-0.2-2.98c-0.89,1.95-2.34,3.46-5.41,3.46
				c-5.39,0-6.56-4.29-6.56-10.24v-12.31c0-5.4,2.09-9.25,7.02-9.25c2.3,0,4.07,0.8,4.85,2.23v-12.75H1026.84z M1014.99,515.26
				v12.33c0,3.3,0.8,5.04,3.07,5.04c2.81,0,3.41-2.6,3.41-6.42v-9.76c0-3.36-0.32-5.91-3.31-5.91
				C1015.84,510.53,1014.99,512.35,1014.99,515.26z"/>
			<path d="M1047.61,531.09c0,2.01,0.02,4.84,0.12,5.91h-4.94c-0.14-0.65-0.32-1.89-0.37-2.36c-1.03,2.05-2.79,2.84-5.07,2.84
				c-4.56,0-6.39-4.15-6.39-8.85v-0.54c0-7.34,4.79-9.55,10.32-9.55c0.28,0,0.59,0,0.97,0v-4.33c0-2.57-0.37-4.1-2.46-4.1
				c-2.06,0-2.58,1.59-2.58,3.71v0.63h-5.29v-0.55c0-4.4,1.7-8.23,8.05-8.23c5.71,0,7.63,3.32,7.63,8.12V531.09z M1042.37,522.69
				c-0.31,0-0.96,0-1.22,0c-3.09,0-5.03,1.23-5.03,5.33v0.5c0,2.42,0.82,4.25,2.94,4.25c2.38,0,3.32-1.77,3.32-6.12V522.69z"/>
			<path d="M1056.4,506.16c1.81,10.56,3.52,20.5,3.78,24.31h0.14c0.58-5.17,2.15-12.88,4.06-24.31h5.39l-6.89,32.39
				c-1.89,8.76-4.84,9.24-8.3,9.24c-0.94,0-1.87-0.12-2.61-0.24l0.08-4.83c0.13,0.04,1.1,0.16,1.77,0.16c2.06,0,3.04-0.8,3.72-4.69
				l-6.91-32.03H1056.4z"/>
			<path d="M1077.22,524.65v-1.14c0-3.11,0.55-6.03,2.95-10.07c1.75-2.97,2.41-4.58,2.41-8.25c0-3.03-0.51-4.44-2.54-4.44
				c-1.93,0-2.59,1.56-2.59,4.1v1.82h-5.04v-1.47c0-4.64,1.57-8.76,7.93-8.76c5.72,0,7.61,3.46,7.61,8.88
				c0,4.75-1.03,6.88-3.59,11.44c-1.52,2.7-1.79,5-1.79,7.32v0.57H1077.22z M1077.21,537v-8.11h5.37V537H1077.21z"/>
		</g>
	</g>
</g>
<g id="Layer_5" class="st5">
	<g id="nappula-alhaalla">
		<g id="tausta_kuvio" class="st9">
		</g>
	</g>
</g>
</svg>
